<?xml version="1.0" encoding="utf-8"?>
<!-- Generator: Adobe Illustrator 28.0.0, SVG Export Plug-In . SVG Version: 6.00 Build 0)  -->
<svg version="1.1" id="Calque_1" xmlns="http://www.w3.org/2000/svg" xmlns:xlink="http://www.w3.org/1999/xlink" x="0px" y="0px"
	 viewBox="0 0 600 600" style="enable-background:new 0 0 600 600;" xml:space="preserve">
<g>
	<polygon points="170.34,143.83 157.78,156.39 170.34,168.95 251.96,168.95 264.52,156.39 251.96,143.83 	"/>
	<path d="M245.68,68.49l9.42-25.11h-93.87c-8.37,2.09-13.61,7.33-15.7,15.7l25.11,9.42H245.68z"/>
	<polygon points="170.34,178.37 151.5,159.53 145.22,165.81 145.22,247.43 170.34,238.01 	"/>
	<path d="M160.92,269.4h103.6l-9.42-25.11h-84.76l-25.11,9.42C147.31,262.08,152.55,267.32,160.92,269.4z"/>
	<path d="M251.96,134.41l18.84,18.84l6.28-6.28v-87.9c-2.09-8.37-7.33-13.6-15.7-15.7l-9.42,25.11V134.41z"/>
	<polygon points="321.02,156.39 333.58,168.95 415.2,168.95 427.76,156.39 415.2,143.83 333.58,143.83 	"/>
	<path d="M440.31,146.97v-87.9c-2.1-8.37-7.33-13.6-15.7-15.7l-9.42,25.11v65.93l18.84,18.84L440.31,146.97z"/>
	<polygon points="333.58,134.41 333.58,65.35 308.46,55.93 308.46,146.97 314.74,153.25 	"/>
	<path d="M440.31,253.71v-87.9l-6.28-6.28l-18.84,18.84v65.93l9.42,25.11C432.98,267.32,438.22,262.08,440.31,253.71z"/>
	<path d="M148.93,374.56l3.14-8.37v-21.97l-6.28-6.28l-2.09,2.09v29.3C144.39,372.12,146.14,373.87,148.93,374.56z"/>
	<path d="M152.07,330.61v-21.98l-3.14-8.37c-2.79,0.7-4.54,2.44-5.23,5.23v29.3l2.09,2.09L152.07,330.61z"/>
	<polygon points="183.46,336.89 179.28,332.7 152.07,332.7 147.88,336.89 152.07,341.08 179.28,341.08 	"/>
	<path d="M187.65,304.45c-0.7-2.79-2.44-4.53-5.23-5.23l-3.14,8.37v21.98l6.28,6.28l2.09-2.09V304.45z"/>
	<path d="M187.65,369.33v-29.3l-2.09-2.09l-6.28,6.28v21.97l3.14,8.37C185.21,373.87,186.95,372.12,187.65,369.33z"/>
	<path d="M203.45,299.22c-2.79,0.7-4.54,2.44-5.23,5.23l8.37,3.14h28.15l3.14-8.37H203.45z"/>
	<path d="M203.34,374.56h34.53l-3.14-8.37h-28.25l-8.37,3.14C198.81,372.12,200.55,373.87,203.34,374.56z"/>
	<polygon points="198.11,367.24 206.48,364.1 206.48,344.22 200.2,337.94 198.11,340.03 	"/>
	<polygon points="206.48,329.57 206.48,309.68 198.11,306.54 198.11,333.75 200.2,335.84 	"/>
	<polygon points="233.69,332.7 206.48,332.7 202.3,336.89 206.48,341.08 233.69,341.08 237.88,336.89 	"/>
	<path d="M292.29,333.75v-29.3c-0.7-2.79-2.44-4.53-5.23-5.23l-3.14,8.37v21.98l6.28,6.28L292.29,333.75z"/>
	<path d="M256.71,330.61v-21.98l-3.14-8.37c-2.79,0.7-4.54,2.44-5.23,5.23v29.3l2.09,2.09L256.71,330.61z"/>
	<path d="M292.29,369.33v-29.3l-2.09-2.09l-6.28,6.28v21.97l3.14,8.37C289.85,373.87,291.59,372.12,292.29,369.33z"/>
	<polygon points="248.34,367.24 256.71,364.1 256.71,344.22 250.43,337.94 248.34,340.03 	"/>
	<path d="M248.34,369.33c0.7,2.79,2.44,4.54,5.23,5.23h31.39l-3.14-8.37h-25.11L248.34,369.33z"/>
	<path d="M346.7,370.38l-27.21-27.21h-6.28v6.28l25.11,25.11C342.52,374.56,345.31,373.17,346.7,370.38z"/>
	<polygon points="342.52,336.89 338.33,332.7 311.12,332.7 306.94,336.89 311.12,341.08 338.33,341.08 	"/>
	<polygon points="311.12,329.57 311.12,309.68 302.75,306.54 302.75,333.75 304.85,335.84 	"/>
	<path d="M346.7,304.45c-0.7-2.79-2.44-4.53-5.23-5.23l-3.14,8.37v21.98l6.28,6.28l2.09-2.09V304.45z"/>
	<path d="M307.98,374.56l3.14-8.37v-21.97l-6.28-6.28l-2.09,2.09v29.3C303.45,372.12,305.19,373.87,307.98,374.56z"/>
	<path d="M336.24,307.59l3.14-8.37h-31.29c-2.79,0.7-4.54,2.44-5.23,5.23l8.37,3.14H336.24z"/>
	<polygon points="357.17,367.24 365.54,364.1 365.54,344.22 359.26,337.94 357.17,340.03 	"/>
	<polygon points="365.54,329.57 365.54,309.68 357.17,306.54 357.17,333.75 359.26,335.84 	"/>
	<polygon points="392.75,332.7 365.54,332.7 361.35,336.89 365.54,341.08 392.75,341.08 396.93,336.89 	"/>
	<path d="M362.4,374.56h34.53l-3.14-8.37h-28.25l-8.37,3.14C357.86,372.12,359.61,373.87,362.4,374.56z"/>
	<path d="M362.5,299.22c-2.79,0.7-4.54,2.44-5.23,5.23l8.37,3.14h28.15l3.14-8.37H362.5z"/>
	<path d="M407.5,304.45l8.37,3.14h27.1l8.37-3.14c-0.7-2.79-2.44-4.53-5.23-5.23h-33.38C409.94,299.92,408.2,301.66,407.5,304.45z"
		/>
	<polygon points="411.58,336.89 415.77,341.08 442.97,341.08 447.16,336.89 442.97,332.7 415.77,332.7 	"/>
	<path d="M412.63,374.56h31.39l-3.14-8.37h-25.11l-8.37,3.14C408.09,372.12,409.84,373.87,412.63,374.56z"/>
	<polygon points="407.4,333.75 409.49,335.84 415.77,329.57 415.77,309.68 407.4,306.54 	"/>
	<path d="M451.35,369.33v-29.3l-2.09-2.09l-6.28,6.28v21.97l3.14,8.37C448.9,373.87,450.65,372.12,451.35,369.33z"/>
	<path d="M194.26,437.57c0-6.18-1.94-10.43-5.81-12.74c-1.81-1.06-3.65-1.59-5.53-1.59c-2.5,0-5.06,0.91-7.68,2.72
		c-1.06,0.75-1.59,1.5-1.59,2.25c0,0.5,0.34,0.94,1.03,1.31c0.81,0.56,1.22,1.72,1.22,3.47c0,2.06-0.53,4.87-1.59,8.43
		c-2,6.74-4.98,14.41-8.95,23c-3.97,8.59-7.98,16.32-12.04,23.18c-1.94,3.12-3.34,4.73-4.22,4.82c-0.88,0.09-1.34,0.14-1.41,0.14
		c-1.44,0-2.4-1.87-2.9-5.62l-0.09-2.15c0-4.62,0.87-10.18,2.62-16.67c2-7.49,4.46-13.99,7.4-19.48c2.93-5.49,5.68-8.24,8.24-8.24
		l1.12,0.09c1,0,1.5-0.75,1.5-2.25l-0.09-0.94c-0.81-3.68-2.61-6.46-5.39-8.34c-2.78-1.87-5.76-2.81-8.95-2.81
		c-4.56,0-8.65,1.97-12.27,5.9c-2.94,3.5-6.37,10.45-10.3,20.84c-3.93,10.4-6.09,21.09-6.46,32.08
		c0.25,18.74,6.59,28.48,19.02,29.23h0.75c5.37,0,10.9-2.53,16.58-7.59c5.93-5.25,11.51-11.99,16.72-20.23
		c5.21-8.24,9.54-16.69,12.97-25.34c3.43-8.65,5.46-16.19,6.09-22.62V437.57z"/>
	<path d="M482.12,467.83c-0.94-1.31-2.06-1.97-3.37-1.97c-1.75,0-3.15,1.44-4.22,4.31c-0.56,1.69-1.72,4.15-3.47,7.4
		c-1.75,3.25-3.75,6.37-6,9.37c-3.25,4.37-5.87,6.56-7.87,6.56c-1.25,0-2.28-1.03-3.09-3.09c-0.31-1-0.47-2.15-0.47-3.47
		c0-2.44,0.5-5.46,1.5-9.09c1.44-5.56,3.53-11.32,6.28-17.28c2.75-5.96,5.53-10.83,8.34-14.61c2.81-3.78,5.21-5.67,7.21-5.67
		l1.22,0.19c0.56,0,1-0.25,1.31-0.75c0.31-0.5,0.47-1.06,0.47-1.69l-0.09-0.75c-0.37-3.68-1.89-6.46-4.54-8.34
		c-2.65-1.87-5.57-2.81-8.76-2.81c-4.75,0-9.15,1.97-13.21,5.9c-1.12,1.19-2.5,3-4.12,5.43c-1-3.43-2.98-6.17-5.95-8.2
		c-2.97-2.03-6.85-3.04-11.66-3.04h-0.47c-6.37,0.44-12.33,3.59-17.89,9.46c-5.56,5.87-10.26,13.08-14.1,21.64
		c-3.31,7.38-5.48,13.18-6.52,17.43c-2.27,4.39-5.44,9-9.55,13.82c-5.56,6.53-11.02,11.82-16.39,15.88
		c4.68-16.42,9.34-30.38,13.96-41.87c5.93-14.86,11.12-22.29,15.55-22.29c0.37,0,0.69,0.03,0.94,0.09c0.25,0.06,0.47,0.09,0.65,0.09
		c0.56,0,1-0.26,1.31-0.8c0.31-0.53,0.47-1.2,0.47-2.01v-0.37c-0.44-3.68-1.98-6.46-4.64-8.34c-2.65-1.87-5.57-2.81-8.76-2.81
		c-4.75,0-9.15,1.97-13.21,5.9c-1.25,1.25-2.53,2.87-3.84,4.87c-1.06-3.31-3.04-5.92-5.95-7.82c-2.9-1.9-6.73-2.86-11.47-2.86h-0.47
		c-6.37,0.44-12.34,3.59-17.89,9.46c-5.56,5.87-10.26,13.08-14.1,21.64c-3.18,7.08-5.29,13.15-6.37,18.24
		c-0.35,0.64-0.72,1.32-1.12,2.04c-1.84,3.28-3.92,6.45-6.23,9.51c-2.31,3.06-4.09,4.9-5.34,5.53c-1.25,0.62-2.09,0.94-2.53,0.94
		c-1.19,0-2.09-1.06-2.72-3.18c-0.13-0.81-0.19-1.69-0.19-2.62c0-4.37,1.47-10.68,4.4-18.92c3.56-9.99,8.12-20.58,13.68-31.76
		c5.56-11.18,10.85-20.58,15.88-28.2c5.03-7.62,8.7-11.43,11.01-11.43l0.75,0.09c0.56,0,1-0.26,1.31-0.8
		c0.31-0.53,0.47-1.2,0.47-2.01v-0.37c-0.44-3.68-1.98-6.46-4.64-8.34c-2.65-1.87-5.57-2.81-8.76-2.81c-4.75,0-9.15,1.97-13.21,5.9
		c-2.31,2.44-6.78,9.1-13.4,20c-6.62,10.9-13.07,23.34-19.34,37.33c-3.75,8.35-6.61,16.29-8.61,23.81
		c-0.58,1.68-1.73,4.11-3.47,7.29c-1.78,3.25-3.76,6.37-5.95,9.37c-3.25,4.37-5.87,6.56-7.87,6.56c-1.31,0-2.37-1.03-3.18-3.09
		c-0.25-0.94-0.37-2.06-0.37-3.37c0-2.5,0.47-5.56,1.41-9.18c1.5-5.56,3.62-11.32,6.37-17.28c2.75-5.96,5.51-10.83,8.29-14.61
		c2.78-3.78,5.2-5.67,7.26-5.67l1.22,0.19c0.56,0,0.98-0.26,1.26-0.8c0.28-0.53,0.42-1.2,0.42-2.01v-0.37
		c-0.37-3.68-1.89-6.46-4.54-8.34c-2.66-1.87-5.61-2.81-8.85-2.81c-4.68,0-9.06,1.97-13.11,5.9c-2.06,2.12-4.7,6-7.92,11.62
		c-3.22,5.62-6.26,12.08-9.13,19.39c-0.13,0.19-0.31,0.66-0.56,1.41c-2.37,6.56-4.78,11.8-7.21,15.74c-2.19,3.5-4.43,5.25-6.74,5.25
		c-2.25,0-3.37-1.87-3.37-5.62c0-2.19,0.37-4.84,1.12-7.96c1.12-4.31,2.72-8.74,4.78-13.3c2.62-5.49,5.25-9.91,7.87-13.25
		c2.62-3.34,4.87-5.01,6.74-5.01l1.22,0.19c0.56,0,1-0.26,1.31-0.8c0.31-0.53,0.47-1.2,0.47-2.01v-0.37
		c-0.44-3.68-1.95-6.45-4.54-8.29c-2.59-1.84-5.48-2.76-8.66-2.76c-4.68,0-9.15,1.94-13.4,5.81c-3.56,3.5-7.17,8.57-10.82,15.22
		c-3.65,6.65-6.76,13.88-9.32,21.69c-2.56,7.81-3.97,13.21-4.22,16.21c-0.25,3-0.37,5.71-0.37,8.15c0.13,6.06,1.5,10.93,4.12,14.61
		c2.62,3.69,6.9,5.59,12.83,5.71c8.18-0.25,15.74-6.15,22.67-17.7c0.75,8.31,2.75,13.44,6,15.41c3.25,1.97,6.18,2.95,8.81,2.95
		c2.5,0,5.18-0.62,8.06-1.87c5.81-2.44,11.44-7.04,16.91-13.82c0.55-0.69,1.09-1.4,1.61-2.13c0.57,5.73,2.11,10.05,4.62,12.94
		c2.81,3.25,6.24,4.87,10.3,4.87c1.5,0,3.09-0.22,4.78-0.66c6.24-1.75,12.4-6.14,18.45-13.16c0.72-0.83,1.42-1.7,2.1-2.6
		c1.58,10.09,6.9,15.35,15.98,15.76c5.62,0,11.02-3,16.21-8.99c-0.81,3.44-1.65,6.62-2.53,9.55c-10.43,1.31-18.63,4.17-24.59,8.57
		c-5.96,4.4-9.6,8.49-10.91,12.27c-1.31,3.78-1.97,6.67-1.97,8.66c0,0.37,0.03,0.72,0.09,1.03c0,3.25,0.81,6.31,2.44,9.18
		c2.56,4.75,7.25,7.99,14.05,9.74c1.44,0.31,2.93,0.47,4.5,0.47c3.12,0,6.46-0.66,10.02-1.97c5.37-1.94,10.12-5.43,14.24-10.49
		c3.25-4.37,5.82-9.18,7.73-14.43c1.9-5.25,3.48-10.27,4.73-15.08c9.87-5.37,18.44-12.22,25.71-20.56c1.42-1.63,2.76-3.31,4.03-5.03
		c1.32,10.94,6.69,16.64,16.16,17.07c8.18-0.25,15.74-6.15,22.67-17.7c0.81,8.31,2.83,13.44,6.04,15.41
		c3.22,1.97,6.14,2.95,8.76,2.95c2.5,0,5.18-0.62,8.06-1.87c5.87-2.44,11.54-7.04,17-13.82c5.46-6.78,9.76-15.35,12.88-25.71
		c0.12-0.56,0.19-1.12,0.19-1.69C483.15,469.95,482.81,468.83,482.12,467.83z M327.09,544.64c-2.31,1.75-3.97,2.62-4.96,2.62
		c-0.88,0-1.53-0.47-1.97-1.41c-0.25-0.56-0.37-1.16-0.37-1.78c0-1.81,0.87-4.06,2.62-6.74c2.44-3.62,7.15-6.68,14.14-9.18
		C332.55,537.4,329.4,542.89,327.09,544.64z M356.97,462.58c-2.12,6.12-4.62,11.37-7.49,15.74c-2.75,3.81-5.28,5.71-7.59,5.71
		c-0.44,0-0.88-0.06-1.31-0.19c-2.5-0.75-3.75-3.31-3.75-7.68c0-3.81,1.09-8.62,3.28-14.43c1.87-4.93,4.18-9.34,6.93-13.21
		c2.75-3.87,5.56-6.24,8.43-7.12l1.03-0.09c2.44,0,3.65,1.84,3.65,5.53C360.15,451.22,359.09,456.46,356.97,462.58z M437.3,462.58
		c-2.09,6.12-4.58,11.37-7.45,15.74c-2.75,3.81-5.28,5.71-7.59,5.71c-0.44,0-0.88-0.06-1.31-0.19c-2.5-0.75-3.75-3.31-3.75-7.68
		c0-3.81,1.09-8.62,3.28-14.43c1.87-4.93,4.18-9.34,6.93-13.21c2.75-3.87,5.56-6.24,8.43-7.12l1.03-0.09c2.37,0,3.56,1.84,3.56,5.53
		C440.43,451.22,439.39,456.46,437.3,462.58z"/>
</g>
</svg>
